<svg width="100" height="100" viewBox="0 0 100 100" fill="none" xmlns="http://www.w3.org/2000/svg">
<path d="M50 100C77.6142 100 100 77.6142 100 50C100 22.3858 77.6142 0 50 0C22.3858 0 0 22.3858 0 50C0 77.6142 22.3858 100 50 100Z" fill="#82BC2F"/>
<path d="M79.8206 28.0414C77.5772 25.7981 73.9534 25.7981 71.667 28.0414L39.9155 59.793L27.8361 47.7136C25.5928 45.4703 21.9689 45.4703 19.6825 47.7136C17.4392 49.9569 17.4392 53.5807 19.6825 55.8672L35.8602 72.0449C36.9819 73.1666 38.4487 73.7274 39.9155 73.7274C41.3822 73.7274 42.849 73.1666 43.9707 72.0449L79.8206 36.195C82.0639 33.9086 82.0639 30.2848 79.8206 28.0414Z" fill="white"/>
</svg>
