<svg width="328" height="108" viewBox="0 0 328 108" fill="none" xmlns="http://www.w3.org/2000/svg">
<rect width="328" height="108" rx="10" fill="#E0E0E0"/>
<g clip-path="url(#clip0)">
<path d="M151.04 68.7681C149.279 68.7652 147.564 68.2041 146.136 67.1637C144.707 66.1233 143.638 64.656 143.078 62.9686L142.996 62.7062C142.746 61.9111 142.618 61.0824 142.613 60.2483V44.7554L137.15 63.1619C136.819 64.4705 137.008 65.8583 137.677 67.0276C138.346 68.1969 139.441 69.0547 140.728 69.4171L175.487 78.8344C175.911 78.9451 176.347 79.0008 176.784 79.0001C177.886 79.0071 178.959 78.6471 179.838 77.9757C180.717 77.3043 181.352 76.3589 181.646 75.2856L183.668 68.7819L151.04 68.7681Z" fill="#BCBCBC"/>
<path d="M157.227 44.9072C158.116 44.9072 158.984 44.6407 159.723 44.1416C160.462 43.6424 161.038 42.9329 161.378 42.1027C161.718 41.2726 161.807 40.3592 161.634 39.478C161.46 38.5967 161.033 37.7872 160.404 37.1519C159.776 36.5165 158.975 36.0839 158.103 35.9086C157.232 35.7333 156.328 35.8233 155.507 36.1671C154.686 36.5109 153.985 37.0932 153.491 37.8403C152.997 38.5874 152.734 39.4657 152.734 40.3642C152.734 41.5691 153.207 42.7246 154.05 43.5766C154.892 44.4285 156.035 44.9072 157.227 44.9072Z" fill="#BCBCBC"/>
<path d="M185.32 29H151.614C150.124 29 148.694 29.5975 147.64 30.6614C146.585 31.7253 145.99 33.1688 145.987 34.6752V59.6683C145.99 61.1724 146.583 62.6138 147.635 63.6773C148.687 64.7408 150.112 65.3399 151.6 65.3436H185.32C186.808 65.3399 188.234 64.7408 189.286 63.6773C190.338 62.6138 190.93 61.1724 190.934 59.6683V34.6752C190.93 33.1712 190.338 31.7298 189.286 30.6663C188.234 29.6027 186.808 29.0036 185.32 29V29ZM151.614 33.5429H185.32C185.468 33.5429 185.613 33.5722 185.749 33.6291C185.885 33.686 186.008 33.7694 186.112 33.8746C186.216 33.9797 186.299 34.1045 186.355 34.2419C186.411 34.3793 186.44 34.5265 186.44 34.6752V50.8172L179.338 42.4355C178.958 42.0056 178.493 41.6607 177.973 41.4229C177.454 41.1851 176.891 41.0597 176.32 41.0547C175.75 41.051 175.186 41.1726 174.668 41.4111C174.149 41.6495 173.687 41.999 173.315 42.4355L164.971 52.5708L162.239 49.8092C161.499 49.0638 160.498 48.6452 159.453 48.6452C158.409 48.6452 157.407 49.0638 156.667 49.8092L150.48 56.1334V34.6752C150.48 34.5254 150.509 34.377 150.567 34.2387C150.624 34.1004 150.707 33.975 150.813 33.8697C150.918 33.7643 151.043 33.6812 151.181 33.6251C151.318 33.5691 151.465 33.5411 151.614 33.5429Z" fill="#BCBCBC"/>
</g>
<defs>
<clipPath id="clip0">
<rect width="53.9474" height="50" fill="white" transform="translate(137 29)"/>
</clipPath>
</defs>
</svg>
