<svg width="24" height="24" viewBox="0 0 24 24" fill="none" xmlns="http://www.w3.org/2000/svg">
<path d="M12.02 20.532C9.69001 20.532 7.36001 20.162 5.15001 19.422C4.31001 19.132 3.67001 18.542 3.39001 17.772C3.10001 17.002 3.20001 16.152 3.66001 15.392L4.81001 13.482C5.05001 13.082 5.27001 12.282 5.27001 11.812V8.922C5.27001 5.202 8.30001 2.172 12.02 2.172C15.74 2.172 18.77 5.202 18.77 8.922V11.812C18.77 12.272 18.99 13.082 19.23 13.492L20.37 15.392C20.8 16.112 20.88 16.982 20.59 17.772C20.4484 18.1585 20.2209 18.5078 19.9247 18.7936C19.6285 19.0794 19.2713 19.2943 18.88 19.422C16.68 20.162 14.35 20.532 12.02 20.532ZM12.02 3.672C9.13001 3.672 6.77001 6.022 6.77001 8.922V11.812C6.77001 12.542 6.47001 13.622 6.10001 14.252L4.95001 16.162C4.73001 16.532 4.67001 16.922 4.80001 17.252C4.92001 17.592 5.22001 17.852 5.63001 17.992C9.77841 19.3919 14.2716 19.3919 18.42 17.992C18.78 17.872 19.06 17.602 19.19 17.242C19.32 16.882 19.29 16.492 19.09 16.162L17.94 14.252C17.56 13.602 17.27 12.532 17.27 11.802V8.922C17.27 6.022 14.92 3.672 12.02 3.672V3.672Z" fill="white"/>
<path d="M13.88 3.94001C13.81 3.94001 13.74 3.93001 13.67 3.91001C13.38 3.83001 13.1 3.77001 12.83 3.73001C11.98 3.62001 11.16 3.68001 10.39 3.91001C10.11 4.00001 9.81 3.91001 9.62 3.70001C9.52533 3.59652 9.46193 3.46832 9.43715 3.33027C9.41238 3.19221 9.42723 3.04996 9.48 2.92001C9.6791 2.40605 10.0294 1.96458 10.4847 1.65391C10.94 1.34324 11.4788 1.178 12.03 1.18001C13.17 1.18001 14.17 1.86001 14.58 2.92001C14.68 3.19001 14.63 3.49001 14.44 3.70001C14.29 3.86001 14.08 3.94001 13.88 3.94001V3.94001ZM12.02 22.809C11.03 22.809 10.07 22.409 9.37 21.709C8.67 21.009 8.27 20.049 8.27 19.059H9.77C9.77 19.649 10.01 20.229 10.43 20.649C10.85 21.069 11.43 21.309 12.02 21.309C13.26 21.309 14.27 20.299 14.27 19.059H15.77C15.77 21.129 14.09 22.809 12.02 22.809Z" fill="white"/>
</svg>
