<svg width="24" height="24" viewBox="0 0 24 24" fill="none" xmlns="http://www.w3.org/2000/svg">
<path d="M12 12.75C8.83 12.75 6.25 10.17 6.25 7C6.25 3.83 8.83 1.25 12 1.25C15.17 1.25 17.75 3.83 17.75 7C17.75 10.17 15.17 12.75 12 12.75ZM12 2.75C10.8736 2.75264 9.79417 3.20126 8.99772 3.99771C8.20126 4.79417 7.75264 5.87364 7.75 7C7.75264 8.12636 8.20126 9.20583 8.99772 10.0023C9.79417 10.7987 10.8736 11.2474 12 11.25C13.1264 11.2474 14.2058 10.7987 15.0023 10.0023C15.7987 9.20583 16.2474 8.12636 16.25 7C16.2474 5.87364 15.7987 4.79417 15.0023 3.99771C14.2058 3.20126 13.1264 2.75264 12 2.75V2.75ZM20.59 22.75C20.18 22.75 19.84 22.41 19.84 22C19.84 18.55 16.32 15.75 12 15.75C7.68 15.75 4.16 18.55 4.16 22C4.16 22.41 3.82 22.75 3.41 22.75C3 22.75 2.66 22.41 2.66 22C2.66 17.73 6.85 14.25 12 14.25C17.15 14.25 21.34 17.73 21.34 22C21.34 22.41 21 22.75 20.59 22.75Z" fill="white"/>
</svg>
